# xmcd
#
# Track frame offsets: 
#        150
#        5474
#        31457
#        56763
#        84957
#        110160
#        135518
#        163934
#
# Disc length: 2544 seconds
#
# Revision: 0
# Processed by: cddbd v1.5.2PL0 Copyright (c) Steve Scherf et al.
# Submitted via: ExactAudioCopy v1.0b3
#
DISCID=6409ee08
DTITLE=Red Wine - Hijos Del Despertar
DYEAR=2001
DGENRE=Metal
TTITLE0=Intro
TTITLE1=Hijos Del Despertar
TTITLE2=La Caricia Del Sol
TTITLE3=Ahogando Penas
TTITLE4=En Isengard
TTITLE5=Hay Que Estar
TTITLE6=Santa Hipocresia
TTITLE7=Esperando
EXTD=
EXTT0=
EXTT1=
EXTT2=
EXTT3=
EXTT4=
EXTT5=
EXTT6=
EXTT7=
PLAYORDER=
